<svg width="66" height="40" viewBox="0 0 66 40" fill="none" xmlns="http://www.w3.org/2000/svg">
<path d="M65.119 5.53596C65.119 2.18245 62.9302 0 59.6202 0C45.5795 0 31.5388 -8.13025e-07 17.4981 0.0532296C16.8575 0.0532296 16.0033 0.425843 15.6296 0.904916C10.5579 6.70703 5.59292 12.5624 0.574573 18.4177C-0.226226 19.3226 -0.17284 20.0146 0.62796 20.9195C5.53953 26.562 10.4511 32.3109 15.3093 38.0597C16.0033 38.9114 16.7507 39.284 17.8718 39.284C24.8121 39.2308 31.699 39.2308 38.6392 39.2308C45.6329 39.2308 52.5731 39.2308 59.5668 39.2308C62.9835 39.2308 65.1724 37.0484 65.1724 33.6416C65.1724 24.2731 65.1724 14.9045 65.119 5.53596ZM45.3126 26.4023C44.5118 27.041 43.8711 27.5733 43.1771 28.1056C41.1484 25.9764 38.9596 23.7408 36.5572 21.2389C34.1014 23.794 31.9125 26.0297 29.7237 28.3718C29.083 27.6266 28.6026 27.041 28.0153 26.4023C30.1508 24.3263 32.4464 22.1438 34.9022 19.8017C32.3396 17.3531 30.044 15.1174 27.6416 12.7753C28.4424 12.0301 28.9763 11.551 29.6703 10.9122C31.9125 13.2011 34.1014 15.5433 36.5038 17.9919C38.9596 15.49 41.1484 13.2011 43.444 10.859C44.0847 11.4978 44.6719 12.0833 45.366 12.7753C42.9636 15.011 40.6679 17.1934 38.2655 19.4823C40.6679 21.8777 42.9636 24.1134 45.3126 26.4023Z" />
</svg>
