<svg width="24" height="24" viewBox="0 0 24 24" fill="none" xmlns="http://www.w3.org/2000/svg">
<path d="M8.63994 0.47998C7.49807 0.47998 6.50432 1.07811 5.90994 1.97998C5.44682 1.67436 4.92744 1.43998 4.31994 1.43998C2.72432 1.43998 1.43994 2.72436 1.43994 4.31998C1.43994 5.17498 1.81119 5.93811 2.39994 6.46498V20.355C2.39994 21.3244 2.66057 22.1381 3.22494 22.695C3.78557 23.2481 4.59932 23.4975 5.56494 23.475C5.57057 23.475 5.57432 23.475 5.57994 23.475H14.5949C15.5606 23.475 16.3706 23.2369 16.9349 22.68C17.4993 22.1231 17.7599 21.3019 17.7599 20.31V18.24C19.3799 18.24 20.6268 17.1937 21.4049 15.81C22.1831 14.4262 22.5599 12.6769 22.5599 11.04C22.5599 9.32436 21.2418 8.15998 19.6799 8.15998C18.9206 8.15998 18.2418 8.32123 17.7599 8.45998V6.80998C18.6206 6.31311 19.1999 5.38873 19.1999 4.31998C19.1999 2.72436 17.9156 1.43998 16.3199 1.43998C15.5737 1.43998 14.9174 1.78498 14.3999 2.26498C13.8824 1.78498 13.2262 1.43998 12.4799 1.43998C12.0093 1.43998 11.5762 1.57873 11.1749 1.78498C10.5637 1.02748 9.66557 0.47998 8.63994 0.47998ZM8.63994 1.43998C9.46494 1.43998 10.2918 1.93498 10.6799 2.59498C10.7512 2.70748 10.8656 2.78811 10.9949 2.81248C11.1262 2.83873 11.2612 2.80873 11.3699 2.72998C11.6624 2.51061 12.0393 2.39998 12.4799 2.39998C13.0874 2.39998 13.6706 2.71123 14.0099 3.16498C14.0999 3.29061 14.2462 3.36561 14.3999 3.36561C14.5537 3.36561 14.6999 3.29061 14.7899 3.16498C15.1293 2.71123 15.7124 2.39998 16.3199 2.39998C17.4131 2.39998 18.2399 3.22686 18.2399 4.31998C18.2399 5.41311 17.4131 6.23998 16.3199 6.23998C15.7124 6.23998 15.1293 5.92873 14.7899 5.47498C14.6999 5.34936 14.5537 5.27436 14.3999 5.27436C14.2462 5.27436 14.0999 5.34936 14.0099 5.47498C13.7981 5.75623 12.9599 6.44998 12.9599 7.52998C12.9599 8.86311 13.2206 9.80998 13.4699 10.515C13.7193 11.22 13.9199 11.6794 13.9199 12C13.9199 12.795 13.2749 13.44 12.4799 13.44C11.6849 13.44 11.0399 12.795 11.0399 12C11.0399 11.6794 11.2406 11.22 11.4899 10.515C11.7393 9.80998 11.9999 8.86311 11.9999 7.52998C11.9999 6.52123 11.2837 5.85373 10.9949 5.56498C10.8131 5.38498 10.5243 5.37936 10.3349 5.54998C9.87369 5.96811 9.32432 6.23998 8.63994 6.23998C7.83932 6.23998 7.16807 5.83498 6.71994 5.26498C6.61869 5.13373 6.45932 5.06248 6.29432 5.07748C6.12932 5.09436 5.98494 5.19186 5.90994 5.33998C5.61369 5.89498 5.02307 6.23998 4.31994 6.23998C3.22682 6.23998 2.39994 5.41311 2.39994 4.31998C2.39994 3.22686 3.22682 2.39998 4.31994 2.39998C4.85432 2.39998 5.31369 2.62498 5.72994 2.99998C5.84432 3.10498 6.00369 3.14811 6.15557 3.11436C6.30744 3.08248 6.43307 2.97748 6.49494 2.83498C6.85119 2.00436 7.67432 1.43998 8.63994 1.43998ZM6.35994 6.19498C6.95619 6.76498 7.71557 7.19998 8.63994 7.19998C9.39557 7.19998 10.0218 6.90373 10.5599 6.52498C10.8018 6.80436 11.0399 7.13811 11.0399 7.52998C11.0399 8.67186 10.8506 9.44998 10.6349 10.08H3.35994V7.03498C3.65994 7.13998 3.98244 7.19998 4.31994 7.19998C5.14307 7.19998 5.84432 6.78561 6.35994 6.19498ZM14.4749 6.43498C14.9831 6.87561 15.6074 7.19998 16.3199 7.19998C16.4831 7.19998 16.6443 7.18123 16.7999 7.15498V9.02998C16.7868 9.09373 16.7868 9.16123 16.7999 9.22498V10.08H14.3249C14.1093 9.44998 13.9199 8.67186 13.9199 7.52998C13.9199 7.12873 14.1899 6.78186 14.4749 6.43498ZM19.6799 9.11998C20.8068 9.11998 21.5999 9.77998 21.5999 11.04C21.5999 12.5231 21.2381 14.1337 20.5649 15.33C19.8918 16.5262 18.9731 17.28 17.7599 17.28V10.65C17.7731 10.5862 17.7731 10.5187 17.7599 10.455V9.46498C18.1537 9.33186 18.8962 9.11998 19.6799 9.11998ZM3.35994 11.04H10.2749C10.1662 11.3494 10.0799 11.6587 10.0799 12C10.0799 13.3181 11.1618 14.4 12.4799 14.4C13.7981 14.4 14.8799 13.3181 14.8799 12C14.8799 11.6587 14.7937 11.3494 14.6849 11.04H16.7999V17.67C16.7868 17.7337 16.7868 17.8012 16.7999 17.865V20.31C16.7999 21.1425 16.5956 21.66 16.2599 21.99C15.9243 22.32 15.4049 22.515 14.5949 22.515H5.56494C5.55932 22.515 5.55557 22.515 5.54994 22.515C4.74557 22.5375 4.23557 22.35 3.89994 22.02C3.56432 21.69 3.35994 21.1612 3.35994 20.355V11.04Z" fill="#F9F9F9"/>
</svg>
