<svg width="24" height="24" viewBox="0 0 24 24" fill="none" xmlns="http://www.w3.org/2000/svg">
<path d="M6.34317 1.83748C6.19505 1.83561 6.04505 1.86748 5.90255 1.94248L1.95005 3.98248C1.38567 4.27498 1.26192 5.06248 1.71005 5.51248L5.0588 8.87998C4.72692 9.22498 4.4888 9.66561 4.40255 10.1606C3.30192 10.3519 2.43755 11.2575 2.40005 12.4031V12.4069C2.40005 12.4425 2.40005 12.4575 2.40005 12.48H1.9313C1.3988 12.48 0.94505 12.9262 0.9713 13.4719C1.08755 15.8756 2.00067 17.76 2.9213 19.08C3.38255 19.7381 3.84567 20.2575 4.21692 20.6344C4.58818 21.0131 4.89755 21.2812 4.92755 21.3131H4.92943C5.51442 21.8925 6.3938 22.0106 7.54318 22.0537C8.69255 22.0969 10.1625 22.0331 12.0001 22.0331C13.8338 22.0331 15.27 22.1062 16.4044 22.0706C17.5388 22.0331 18.4219 21.8981 19.0519 21.33C19.2019 21.1969 20.1807 20.3962 21.0957 19.0781C22.0126 17.7581 22.9144 15.8737 23.0269 13.4719C23.055 12.9262 22.6013 12.48 22.0669 12.48H21.5494C21.5419 12.4275 21.54 12.39 21.5288 12.3319C21.4725 12.0619 21.3394 11.7412 21.1069 11.4581C21.0788 10.6219 20.5069 9.94311 19.7363 9.71811L21.2775 8.45998C21.7257 8.09248 21.6882 7.36123 21.2025 7.04248L18.1069 5.01186C17.9851 4.93311 17.8519 4.88998 17.7169 4.87686C17.5819 4.86373 17.445 4.88436 17.3194 4.93123C17.0682 5.02498 16.8563 5.22936 16.7775 5.50873L15.8832 8.68498C15.8138 8.73748 15.7425 8.78998 15.6807 8.84998C15.4257 8.75248 15.1744 8.63998 14.8801 8.63998C14.7976 8.63998 14.7338 8.66436 14.6551 8.67373C14.2894 7.81686 13.4663 7.19998 12.4801 7.19998C11.9363 7.19998 11.4488 7.39311 11.055 7.70248V3.61123C11.0644 2.97561 10.4269 2.49561 9.81755 2.67748L7.42317 3.39748L7.29005 2.63061C7.20942 2.16186 6.78755 1.84311 6.34317 1.83748ZM6.34505 2.79373L6.56817 4.09498L7.21505 7.83186L7.29005 8.26311C7.10818 8.20686 6.92068 8.15998 6.72005 8.15998C6.4163 8.15998 6.12755 8.21998 5.86317 8.32686L2.39067 4.83748L6.34505 2.79373ZM10.095 3.59623V8.65686C9.89255 8.68311 9.7013 8.73936 9.50817 8.79373C9.17817 8.44686 8.75067 8.19186 8.2463 8.16561L8.16005 7.67061L7.58817 4.34998L10.095 3.59623ZM4.32005 4.79998C4.05568 4.79998 3.84005 5.01561 3.84005 5.27998C3.84005 5.54436 4.05568 5.75998 4.32005 5.75998C4.58442 5.75998 4.80005 5.54436 4.80005 5.27998C4.80005 5.01561 4.58442 4.79998 4.32005 4.79998ZM5.76005 4.79998C5.49568 4.79998 5.28005 5.01561 5.28005 5.27998C5.28005 5.54436 5.49568 5.75998 5.76005 5.75998C6.02443 5.75998 6.24005 5.54436 6.24005 5.27998C6.24005 5.01561 6.02443 4.79998 5.76005 4.79998ZM17.6719 5.87436L20.5857 7.78498L19.0725 9.01686C18.6432 8.49748 18.0075 8.15998 17.2801 8.15998C17.1919 8.15998 17.1075 8.16561 17.0232 8.17686L17.6719 5.87436ZM12.4801 8.15998C13.1776 8.15998 13.7513 8.64936 13.8882 9.29998L13.9951 9.80248L14.4901 9.66186C14.6288 9.62248 14.7563 9.59998 14.8801 9.59998C15.1238 9.59998 15.3507 9.66561 15.5626 9.78186L15.9151 9.97311L16.1644 9.66186C16.4326 9.33186 16.8263 9.11998 17.2801 9.11998C17.9569 9.11998 18.51 9.58123 18.6694 10.2056L18.765 10.5825L19.1551 10.5675C19.2469 10.5619 19.26 10.56 19.2001 10.56C19.7363 10.56 20.16 10.9837 20.16 11.52C20.16 11.475 20.1582 11.49 20.1525 11.5725L20.1357 11.8219L20.3307 11.9775C20.4188 12.0506 20.5182 12.2606 20.5725 12.48H12.9601C12.9601 12.2156 12.7444 12 12.4801 12C12.2157 12 12.0001 12.2156 12.0001 12.48H3.36005C3.36192 12.4556 3.36192 12.4162 3.36005 12.4331C3.3863 11.655 4.01442 11.04 4.80005 11.04H5.28005V10.56C5.28005 9.75936 5.91943 9.11998 6.72005 9.11998C6.9263 9.11998 7.1213 9.16498 7.30317 9.24748L7.51505 9.33936L7.71943 9.23248C7.86193 9.15936 8.0063 9.11998 8.16005 9.11998C8.5013 9.11998 8.79192 9.29436 8.96443 9.56061L9.17817 9.88873L9.54005 9.74811C9.78568 9.65248 10.0463 9.59998 10.3201 9.59998C10.4007 9.59998 10.4813 9.60561 10.5675 9.61498L10.9857 9.66561L11.0869 9.25498C11.2444 8.62498 11.8013 8.15998 12.4801 8.15998ZM7.20005 10.08C6.93568 10.08 6.72005 10.2956 6.72005 10.56C6.72005 10.8244 6.93568 11.04 7.20005 11.04C7.46443 11.04 7.68005 10.8244 7.68005 10.56C7.68005 10.2956 7.46443 10.08 7.20005 10.08ZM8.64005 11.04C8.37568 11.04 8.16005 11.2556 8.16005 11.52C8.16005 11.7844 8.37568 12 8.64005 12C8.90443 12 9.12005 11.7844 9.12005 11.52C9.12005 11.2556 8.90443 11.04 8.64005 11.04ZM15.8401 11.04C15.5757 11.04 15.3601 11.2556 15.3601 11.52C15.3601 11.7844 15.5757 12 15.8401 12C16.1044 12 16.3201 11.7844 16.3201 11.52C16.3201 11.2556 16.1044 11.04 15.8401 11.04ZM1.93317 13.44H2.79942C2.85192 13.4494 2.90442 13.4494 2.95505 13.44H21.0394C21.0919 13.4494 21.1444 13.4494 21.195 13.44H22.0669C22.0238 14.3194 21.8625 15.1162 21.6338 15.84H2.37005C2.13942 15.1162 1.9763 14.3194 1.93317 13.44ZM2.73567 16.8H21.2719C20.9851 17.4562 20.6494 18.0375 20.3082 18.5306C19.4663 19.74 18.6488 20.4037 18.4125 20.6119V20.6137L18.4107 20.6156C18.0713 20.9212 17.4375 21.0769 16.3725 21.1106C15.3075 21.1444 13.8601 21.0731 12.0001 21.0731C10.14 21.0731 8.66255 21.1331 7.5788 21.0937C6.49505 21.0544 5.85755 20.8819 5.6063 20.6325C5.46755 20.4937 5.24255 20.31 4.9013 19.9631C4.56005 19.6144 4.13255 19.1344 3.7088 18.5287C3.3638 18.0356 3.0263 17.4562 2.73567 16.8Z" fill="#F9F9F9"/>
</svg>
