<svg width="24" height="24" viewBox="0 0 24 24" fill="none" xmlns="http://www.w3.org/2000/svg">
<path d="M4.90905 8.70483H19.091C20.1403 8.70483 22.125 8.24842 22.125 6.52015C22.125 4.9945 20.7043 3.75014 17.9022 2.82115C14.0685 1.55962 9.93147 1.55962 6.09776 2.82115C3.29573 3.75014 1.875 4.9945 1.875 6.52015C1.875 8.24842 3.85969 8.70483 4.90905 8.70483ZM6.3336 3.53328C10.0141 2.32203 13.9859 2.32203 17.6664 3.53328C19.3583 4.09409 21.375 5.06774 21.375 6.52015C21.375 7.93192 19.1133 7.95464 19.091 7.95464H4.90905C4.88618 7.95464 2.625 7.93814 2.625 6.52015C2.625 5.06774 4.64171 4.09409 6.3336 3.53328Z" fill="#F9F9F9"/>
<path d="M21.75 17.999H2.25C2.20074 17.999 2.15197 18.0087 2.10646 18.0276C2.06096 18.0464 2.01961 18.0741 1.98479 18.1089C1.94996 18.1437 1.92234 18.1851 1.9035 18.2306C1.88467 18.2761 1.87498 18.3249 1.875 18.3741V20.4372C1.87543 20.8847 2.05335 21.3137 2.36971 21.6301C2.68607 21.9466 3.11504 22.1246 3.5625 22.1251H20.4375C20.885 22.1246 21.3139 21.9466 21.6303 21.6301C21.9467 21.3137 22.1246 20.8847 22.125 20.4372V18.3741C22.125 18.3249 22.1153 18.2761 22.0965 18.2306C22.0777 18.1851 22.05 18.1437 22.0152 18.1089C21.9804 18.0741 21.939 18.0464 21.8935 18.0276C21.848 18.0087 21.7993 17.999 21.75 17.999ZM21.375 20.4372C21.3748 20.6858 21.2759 20.9241 21.1002 21.1C20.9244 21.2758 20.6861 21.3747 20.4375 21.375H3.5625C3.31391 21.3747 3.07558 21.2758 2.89982 21.1C2.72407 20.9241 2.62523 20.6858 2.625 20.4372V18.7492H21.375V20.4372Z" fill="#F9F9F9"/>
<path d="M21.7501 9.35656C21.1273 9.34295 20.5115 9.49006 19.9621 9.78368C19.5109 10.0214 19.0086 10.1457 18.4986 10.1457C17.9886 10.1457 17.4863 10.0214 17.0352 9.78368C16.4827 9.49784 15.8697 9.34867 15.2476 9.34867C14.6255 9.34867 14.0125 9.49784 13.46 9.78368C13.0092 10.0214 12.5072 10.1456 11.9975 10.1456C11.4878 10.1456 10.9858 10.0214 10.5349 9.78368C9.98261 9.49782 9.36978 9.34863 8.74789 9.34863C8.12599 9.34863 7.51317 9.49782 6.96086 9.78368C6.51016 10.0214 6.00831 10.1456 5.49878 10.1456C4.98924 10.1456 4.48739 10.0214 4.03669 9.78368C3.48778 9.4901 2.87245 9.34299 2.25011 9.35656C2.15063 9.35656 2.05522 9.39608 1.98487 9.46642C1.91452 9.53677 1.875 9.63218 1.875 9.73167C1.875 9.83115 1.91452 9.92657 1.98487 9.99691C2.05522 10.0673 2.15063 10.1068 2.25011 10.1068C2.76007 10.0925 3.26461 10.2144 3.71182 10.4599C4.26401 10.7458 4.87675 10.895 5.49857 10.895C6.12038 10.895 6.73312 10.7458 7.28531 10.4599C7.73618 10.2222 8.23818 10.0979 8.74787 10.0979C9.25756 10.0979 9.75956 10.2222 10.2104 10.4599C10.7628 10.7457 11.3756 10.8949 11.9975 10.8949C12.6195 10.8949 13.2323 10.7457 13.7847 10.4599C14.2357 10.2222 14.7378 10.0979 15.2477 10.0979C15.7575 10.0979 16.2597 10.2222 16.7107 10.4599C17.2633 10.7458 17.8764 10.8949 18.4986 10.8949C19.1208 10.8949 19.7339 10.7458 20.2866 10.4599C20.7344 10.2144 21.2396 10.0925 21.7501 10.1068C21.8496 10.1068 21.945 10.0673 22.0154 9.99691C22.0857 9.92657 22.1252 9.83115 22.1252 9.73167C22.1252 9.63218 22.0857 9.53677 22.0154 9.46642C21.945 9.39608 21.8496 9.35656 21.7501 9.35656Z" fill="#F9F9F9"/>
<path d="M20.0626 11.6221H3.93757C3.39042 11.6221 2.86567 11.8394 2.47877 12.2263C2.09187 12.6132 1.87451 13.138 1.87451 13.6851C1.87451 14.2323 2.09187 14.757 2.47877 15.1439C2.86567 15.5308 3.39042 15.7482 3.93757 15.7482H20.0626C20.6097 15.7482 21.1345 15.5308 21.5214 15.1439C21.9083 14.757 22.1256 14.2323 22.1256 13.6851C22.1256 13.138 21.9083 12.6132 21.5214 12.2263C21.1345 11.8394 20.6097 11.6221 20.0626 11.6221ZM18.5948 12.3723L17.6251 13.3423L16.6554 12.3723H18.5948ZM12.9698 12.3723L12.0001 13.3423L11.0304 12.3723H12.9698ZM7.34479 12.3723L6.37507 13.3423L5.40536 12.3723H7.34479ZM20.0626 14.998H3.93757C3.5906 14.9961 3.25847 14.857 3.01377 14.611C2.76908 14.365 2.63172 14.0321 2.63172 13.6851C2.63172 13.3381 2.76908 13.0053 3.01377 12.7593C3.25847 12.5132 3.5906 12.3741 3.93757 12.3723H4.34479L6.10995 14.1379C6.14476 14.1727 6.18609 14.2004 6.23158 14.2192C6.27707 14.2381 6.32583 14.2478 6.37507 14.2478C6.42432 14.2478 6.47308 14.2381 6.51857 14.2192C6.56406 14.2004 6.60539 14.1727 6.6402 14.1379L8.40536 12.3723H9.96979L11.735 14.1379C11.7698 14.1727 11.8111 14.2004 11.8566 14.2192C11.9021 14.2381 11.9508 14.2478 12.0001 14.2478C12.0493 14.2478 12.0981 14.2381 12.1436 14.2192C12.1891 14.2004 12.2304 14.1727 12.2652 14.1379L14.0304 12.3723H15.5948L17.36 14.1379C17.3948 14.1727 17.4361 14.2004 17.4816 14.2192C17.5271 14.2381 17.5758 14.2478 17.6251 14.2478C17.6743 14.2478 17.7231 14.2381 17.7686 14.2192C17.8141 14.2004 17.8554 14.1727 17.8902 14.1379L19.6554 12.3723H20.0626C20.4096 12.3741 20.7417 12.5132 20.9864 12.7593C21.2311 13.0053 21.3684 13.3381 21.3684 13.6851C21.3684 14.0321 21.2311 14.365 20.9864 14.611C20.7417 14.857 20.4096 14.9961 20.0626 14.998Z" fill="#F9F9F9"/>
<path d="M21.7501 16.4985H2.25011C2.15063 16.4985 2.05522 16.5381 1.98487 16.6084C1.91452 16.6788 1.875 16.7742 1.875 16.8736C1.875 16.9731 1.91452 17.0685 1.98487 17.1389C2.05522 17.2092 2.15063 17.2488 2.25011 17.2488H21.7501C21.8496 17.2488 21.945 17.2092 22.0154 17.1389C22.0857 17.0685 22.1252 16.9731 22.1252 16.8736C22.1252 16.7742 22.0857 16.6788 22.0154 16.6084C21.945 16.5381 21.8496 16.4985 21.7501 16.4985Z" fill="#F9F9F9"/>
<path d="M9.64007 5.13542L10.0151 4.76035C10.0854 4.69003 10.1249 4.59465 10.125 4.49519C10.125 4.39573 10.0855 4.30034 10.0152 4.23C9.94484 4.15966 9.84947 4.12013 9.75001 4.12012C9.65055 4.1201 9.55516 4.15959 9.48482 4.22991L9.10982 4.60502C9.07474 4.63978 9.04687 4.68113 9.02782 4.72669C9.00876 4.77225 8.9989 4.82112 8.99878 4.87051C8.99867 4.91989 9.00831 4.96881 9.02715 5.01446C9.04599 5.06011 9.07366 5.10158 9.10858 5.13651C9.14349 5.17143 9.18496 5.19912 9.2306 5.21797C9.27625 5.23683 9.32516 5.24648 9.37455 5.24638C9.42393 5.24628 9.47281 5.23642 9.51837 5.21738C9.56394 5.19834 9.60529 5.17049 9.64007 5.13542Z" fill="#F9F9F9"/>
<path d="M13.3901 5.13542L13.7651 4.76035C13.8354 4.69003 13.8749 4.59465 13.875 4.49519C13.875 4.39573 13.8355 4.30034 13.7652 4.23C13.6948 4.15966 13.5995 4.12013 13.5 4.12012C13.4005 4.1201 13.3052 4.15959 13.2348 4.22991L12.8598 4.60502C12.8247 4.63978 12.7969 4.68113 12.7778 4.72669C12.7588 4.77225 12.7489 4.82112 12.7488 4.87051C12.7487 4.91989 12.7583 4.96881 12.7771 5.01446C12.796 5.06011 12.8237 5.10158 12.8586 5.13651C12.8935 5.17143 12.935 5.19912 12.9806 5.21797C13.0262 5.23683 13.0752 5.24648 13.1245 5.24638C13.1739 5.24628 13.2228 5.23642 13.2684 5.21738C13.3139 5.19834 13.3553 5.17049 13.3901 5.13542Z" fill="#F9F9F9"/>
<path d="M11.1402 6.63591L11.5152 6.26083C11.5855 6.19052 11.6251 6.09514 11.6251 5.99568C11.6251 5.89622 11.5856 5.80083 11.5153 5.73049C11.445 5.66015 11.3496 5.62062 11.2501 5.62061C11.1507 5.62059 11.0553 5.66008 10.9849 5.7304L10.6099 6.10551C10.5401 6.17593 10.501 6.27114 10.5012 6.37032C10.5014 6.46949 10.5409 6.56454 10.611 6.63468C10.6811 6.70481 10.7762 6.74432 10.8753 6.74455C10.9745 6.74478 11.0697 6.70572 11.1402 6.63591Z" fill="#F9F9F9"/>
<path d="M14.8902 6.63591L15.2652 6.26083C15.3355 6.19052 15.3751 6.09514 15.3751 5.99568C15.3751 5.89622 15.3356 5.80083 15.2653 5.73049C15.195 5.66015 15.0996 5.62062 15.0001 5.62061C14.9007 5.62059 14.8053 5.66008 14.7349 5.7304L14.3599 6.10551C14.2901 6.17593 14.251 6.27114 14.2512 6.37032C14.2514 6.46949 14.2909 6.56454 14.361 6.63468C14.4311 6.70481 14.5262 6.74432 14.6253 6.74455C14.7245 6.74478 14.8197 6.70572 14.8902 6.63591Z" fill="#F9F9F9"/>
</svg>
