<svg width="96" height="96" viewBox="0 0 96 96" fill="none" xmlns="http://www.w3.org/2000/svg">
<path d="M19.2 3.83984C10.7325 3.83984 3.84 10.7323 3.84 19.1998C3.84 27.6673 10.7325 34.5598 19.2 34.5598C27.6675 34.5598 34.56 27.6673 34.56 19.1998C34.56 10.7323 27.6675 3.83984 19.2 3.83984ZM69.12 13.4398C68.055 13.4398 67.2 14.3023 67.2 15.3598V28.7998H65.28C64.215 28.7998 63.36 29.6623 63.36 30.7198C63.36 31.7773 64.215 32.6398 65.28 32.6398H92.16C93.225 32.6398 94.08 31.7773 94.08 30.7198C94.08 29.6623 93.225 28.7998 92.16 28.7998H90.24V23.0398C90.24 21.9823 89.3775 21.1198 88.32 21.1198H84.48V15.3598C84.48 14.3023 83.625 13.4398 82.56 13.4398H69.12ZM84.48 24.9598H86.4V28.7998H84.48V24.9598ZM59.16 34.5598C58.1025 34.6573 57.3225 35.6023 57.42 36.6598C57.5175 37.7173 58.4625 38.4973 59.52 38.3998H88.32C89.01 38.4073 89.655 38.0473 90.0075 37.4473C90.3525 36.8473 90.3525 36.1123 90.0075 35.5123C89.655 34.9123 89.01 34.5523 88.32 34.5598H59.52C59.46 34.5598 59.4 34.5598 59.34 34.5598C59.28 34.5598 59.22 34.5598 59.16 34.5598ZM9.6 38.3998C8.25 38.3998 4.0725 38.8048 1.62 39.1798C0.6825 39.3223 0 40.1549 0 41.0998V90.2399C0 91.3049 0.8625 92.1599 1.92 92.1599H40.32C41.3775 92.1599 42.24 91.3049 42.24 90.2399V67.4999L47.4 73.3198C48.8925 75.0224 50.415 76.7999 52.8 76.7999C55.2225 76.7999 56.4675 75.6973 58.38 73.1399C59.0475 72.2099 67.215 62.6848 72.42 56.6399C72.99 56.0773 75.9225 55.2673 77.88 54.7198C82.035 53.5499 86.31 52.3424 87.78 49.9198H60.54L53.1 57.1199L42.3 41.1598C42.2325 41.0623 42.15 40.9423 42.06 40.8598C39.6975 38.4973 30.6 38.3998 28.8 38.3998C27.9075 38.3998 27.1425 39.0373 26.94 39.8998L19.2 76.1999L11.46 39.8998C11.2575 39.0373 10.4925 38.3998 9.6 38.3998ZM55.68 40.3198C54.615 40.3198 53.76 41.1823 53.76 42.2398C53.76 46.5448 59.055 47.9998 63.36 47.9998H86.4C90.705 47.9998 96 46.5448 96 42.2398C96 41.1823 95.145 40.3198 94.08 40.3198H55.68Z" fill="#C83A2E"/>
</svg>
