<svg width="42" height="40" viewBox="0 0 42 40" fill="none" xmlns="http://www.w3.org/2000/svg">
<g clip-path="url(#clip0_149_3063)">
<rect x="5.59998" y="4.60001" width="30.8" height="30.8" rx="5.13333" />
<path d="M31.0991 14.2561L19.0932 27.515C18.9868 27.6334 18.8421 27.7 18.6911 27.7C18.5401 27.7 18.3953 27.6334 18.289 27.515L12.1841 20.773C12.0769 20.6556 12.0166 20.4957 12.0166 20.3289C12.0166 20.1622 12.0769 20.0023 12.1841 19.8849L12.977 19.0093C13.0833 18.8909 13.228 18.8243 13.379 18.8243C13.53 18.8243 13.6748 18.8909 13.7811 19.0093L18.6854 24.4254L29.5021 12.4799C29.7261 12.24 30.0822 12.24 30.3062 12.4799L31.0991 13.368C31.2063 13.4855 31.2666 13.6453 31.2666 13.8121C31.2666 13.9788 31.2063 14.1387 31.0991 14.2561Z" fill="#EBEEFF"/>
</g>
<defs>
<clipPath id="clip0_149_3063">
<rect x="5.59998" y="4.60001" width="30.8" height="30.8" rx="5.13333" fill="white"/>
</clipPath>
</defs>
</svg>
