<svg width="34" height="34" viewBox="0 0 34 34" fill="none" xmlns="http://www.w3.org/2000/svg">
<path d="M33.4654 16.643L31.7619 13.6615L31.975 10.1803C31.9901 9.93043 31.8742 9.68995 31.669 9.54667L28.8279 7.55731L27.5506 4.36195C27.457 4.12867 27.2482 3.96019 26.9998 3.91915L23.5906 3.35107L21.0324 1.00675C20.8452 0.835389 20.5824 0.774909 20.3405 0.847629L17.0004 1.84195L13.6603 0.847629C13.4184 0.774909 13.1556 0.835389 12.9684 1.00675L10.4103 3.35179L7.00107 3.91987C6.75267 3.96091 6.54387 4.12939 6.45027 4.36267L5.17299 7.55803L2.33187 9.54739C2.12667 9.69139 2.01075 9.93115 2.02587 10.181L2.23899 13.6622L0.53547 16.6437C0.40875 16.8647 0.40875 17.1369 0.53547 17.358L2.23899 20.3395L2.02587 23.8207C2.01075 24.0705 2.12667 24.311 2.33187 24.4543L5.17299 26.4436L6.45027 29.639C6.54387 29.8723 6.75267 30.0408 7.00107 30.0818L10.4103 30.6499L12.9684 32.9949C13.1556 33.1663 13.4184 33.226 13.6603 33.154L17.0004 32.1583L20.3405 33.1526C20.4082 33.1727 20.4766 33.1828 20.5457 33.1828C20.7235 33.1828 20.8971 33.1173 21.0324 32.9935L23.5906 30.6484L26.9998 30.0804C27.2482 30.0393 27.457 29.8708 27.5506 29.6375L28.8279 26.4422L31.669 24.4528C31.8742 24.3088 31.9901 24.0691 31.975 23.8192L31.7619 20.338L33.4654 17.3565C33.5921 17.1362 33.5921 16.864 33.4654 16.643ZM15.9226 23.8617L9.39003 17.9663L10.3548 16.8979L15.6303 21.6585L23.5236 9.40987L24.7347 10.1896L15.9226 23.8617Z" fill="#F9F9F9"/>
</svg>
