<svg width="24" height="24" viewBox="0 0 24 24" fill="none" xmlns="http://www.w3.org/2000/svg">
<path d="M11.04 0.439453C10.2284 0.439453 9.55964 1.10876 9.55964 1.91977V2.87977C9.55959 3.01745 9.61414 3.14954 9.71132 3.24707C9.8085 3.34461 9.94039 3.39963 10.0781 3.40008C10.0679 5.17705 9.41342 6.38033 8.69901 7.69008C8.45042 8.14583 8.19688 8.61726 7.9687 9.11977H7.91995V9.22383C7.51049 10.1504 7.19995 11.1933 7.19995 12.4798C7.19995 15.4664 8.15995 17.5353 8.15995 18.762C8.15995 19.3512 7.95713 19.8649 7.72214 20.3885C7.48715 20.9121 7.19995 21.4398 7.19995 22.0798C7.19995 22.7198 7.59078 23.1719 7.94526 23.3491C8.29975 23.5264 8.63995 23.5198 8.63995 23.5198H11.04H12.96H15.36C15.36 23.5198 15.7002 23.5264 16.0546 23.3491C16.4091 23.1719 16.8 22.7198 16.8 22.0798C16.8 21.4398 16.5127 20.9121 16.2778 20.3885C16.0428 19.8649 15.84 19.3512 15.84 18.762C15.84 17.5353 16.8 15.4664 16.8 12.4798C16.8 11.1933 16.4894 10.1504 16.08 9.22383V9.11977H16.0312C15.803 8.61726 15.5495 8.14583 15.3009 7.69008C14.5865 6.38033 13.932 5.17705 13.9218 3.40008C14.0595 3.39963 14.1914 3.34461 14.2886 3.24707C14.3858 3.14954 14.4403 3.01745 14.4403 2.87977V1.91977C14.4403 1.10876 13.7715 0.439453 12.96 0.439453H11.04ZM11.04 1.48008H12.96C13.2092 1.48008 13.3996 1.67093 13.3996 1.91977V2.35945H10.6003V1.91977C10.6003 1.67093 10.7907 1.48008 11.04 1.48008ZM11.0381 3.40008H12.9618C12.9724 5.41789 13.7439 6.83847 14.459 8.14945C14.6371 8.47596 14.811 8.7961 14.9728 9.11977H14.0118L13.409 7.51102C13.3764 7.42003 13.317 7.34101 13.2388 7.2843C13.1605 7.2276 13.0669 7.19584 12.9703 7.1932C12.891 7.19113 12.8125 7.20871 12.7418 7.24437C12.671 7.28002 12.6101 7.33264 12.5646 7.39753C12.5192 7.46243 12.4904 7.53757 12.4811 7.61626C12.4717 7.69496 12.4819 7.77475 12.5109 7.84852L12.9881 9.11977H11.0118L11.489 7.84852C11.5183 7.77366 11.5284 7.69263 11.5182 7.61288C11.5081 7.53313 11.4781 7.4572 11.431 7.39207C11.3838 7.32694 11.3211 7.27468 11.2485 7.2401C11.1759 7.20551 11.0958 7.18971 11.0156 7.19414C10.9215 7.19945 10.8311 7.23233 10.7556 7.28868C10.68 7.34502 10.6228 7.42235 10.5909 7.51102L9.98808 9.11977H9.02714C9.1889 8.7961 9.36279 8.47596 9.54089 8.14945C10.256 6.83847 11.0275 5.41789 11.0381 3.40008ZM8.60245 10.0798H10.1868C10.2691 10.1021 10.3558 10.1021 10.4381 10.0798H13.5618C13.6435 10.1017 13.7295 10.1017 13.8112 10.0798H15.3975C15.6646 10.7878 15.84 11.5554 15.84 12.4798C15.84 13.1735 15.78 13.8097 15.6899 14.3998H8.30995C8.21987 13.8097 8.15995 13.1735 8.15995 12.4798C8.15995 11.5554 8.33534 10.7878 8.60245 10.0798ZM8.48808 15.3598H9.83339C9.83347 15.3764 9.8344 15.393 9.8362 15.4095C9.95732 16.5682 10.08 18.0416 10.08 18.7198C10.08 20.0082 9.59995 20.9598 9.59995 22.0798C9.59995 22.2549 9.63081 22.4146 9.68058 22.5598H8.63995C8.63995 22.5598 8.50015 22.5531 8.37464 22.4904C8.24913 22.4276 8.15995 22.3998 8.15995 22.0798C8.15995 21.7598 8.35275 21.3273 8.59776 20.7813C8.84278 20.2354 9.11995 19.5709 9.11995 18.762C9.11995 17.7573 8.76623 16.6744 8.48808 15.3598ZM10.7962 15.3598H13.2037C13.0826 16.5252 12.96 17.9435 12.96 18.7198C12.96 20.2279 13.44 21.2798 13.44 22.0798C13.44 22.3998 13.3508 22.4276 13.2253 22.4904C13.0998 22.5531 12.96 22.5598 12.96 22.5598H11.04C11.04 22.5598 10.9002 22.5531 10.7746 22.4904C10.6491 22.4276 10.56 22.3998 10.56 22.0798C10.56 21.2798 11.04 20.2279 11.04 18.7198C11.04 17.9435 10.9173 16.5252 10.7962 15.3598ZM14.1665 15.3598H15.5118C15.2337 16.6744 14.88 17.7573 14.88 18.762C14.88 19.5709 15.1571 20.2354 15.4021 20.7813C15.6472 21.3273 15.84 21.7598 15.84 22.0798C15.84 22.3998 15.7508 22.4276 15.6253 22.4904C15.4998 22.5531 15.36 22.5598 15.36 22.5598H14.3193C14.3691 22.4146 14.4 22.2549 14.4 22.0798C14.4 20.9598 13.92 20.0082 13.92 18.7198C13.92 18.0416 14.0426 16.5682 14.1637 15.4095C14.1655 15.393 14.1664 15.3764 14.1665 15.3598Z" fill="#F9F9F9"/>
</svg>
