<svg width="50" height="50" viewBox="0 0 50 50" fill="none" xmlns="http://www.w3.org/2000/svg">
<path d="M8 2V6H4V48H15V39H19V48H30V6H26V2H8ZM10 10H12V12H10V10ZM14 10H16V12H14V10ZM18 10H20V12H18V10ZM22 10H24V12H22V10ZM32 14V18H34V20H32V22H34V24H32V26H34V28H32V30H34V32H32V34H34V36H32V38H34V40H32V42H34V44H32V48H46V14H32ZM10 15H12V19H10V15ZM14 15H16V19H14V15ZM18 15H20V19H18V15ZM22 15H24V19H22V15ZM36 18H38V20H36V18ZM40 18H42V20H40V18ZM10 21H12V25H10V21ZM14 21H16V25H14V21ZM18 21H20V25H18V21ZM22 21H24V25H22V21ZM36 22H38V24H36V22ZM40 22H42V24H40V22ZM36 26H38V28H36V26ZM40 26H42V28H40V26ZM10 27H12V31H10V27ZM14 27H16V31H14V27ZM18 27H20V31H18V27ZM22 27H24V31H22V27ZM36 30H38V32H36V30ZM40 30H42V32H40V30ZM10 33H12V37H10V33ZM14 33H16V37H14V33ZM18 33H20V37H18V33ZM22 33H24V37H22V33ZM36 34H38V36H36V34ZM40 34H42V36H40V34ZM36 38H38V40H36V38ZM40 38H42V40H40V38ZM10 39H12V44H10V39ZM22 39H24V44H22V39ZM36 42H38V44H36V42ZM40 42H42V44H40V42Z" />
</svg>
