<svg width="40" height="40" viewBox="0 0 40 40" fill="none" xmlns="http://www.w3.org/2000/svg">
<path d="M20.1156 6.39999C15.2832 6.39999 10.8492 8.34556 7.42345 11.5516C7.34349 11.6225 7.27855 11.7088 7.23248 11.8052C7.18641 11.9017 7.16013 12.0064 7.15521 12.1132C7.15028 12.22 7.16681 12.3267 7.20381 12.427C7.24081 12.5272 7.29753 12.6191 7.37063 12.6971C7.44373 12.7751 7.53171 12.8377 7.62939 12.8811C7.72707 12.9245 7.83247 12.948 7.93935 12.95C8.04623 12.952 8.15243 12.9326 8.25168 12.8929C8.35093 12.8531 8.44121 12.7939 8.5172 12.7187C11.6771 9.76154 15.7113 7.99999 20.1156 7.99999C24.4979 7.99999 28.5129 9.74411 31.6656 12.675C31.7421 12.7491 31.8326 12.8073 31.9318 12.846C32.031 12.8847 32.137 12.9032 32.2434 12.9005C32.3499 12.8977 32.4547 12.8737 32.5518 12.8299C32.6489 12.7861 32.7362 12.7233 32.8087 12.6453C32.8812 12.5673 32.9374 12.4756 32.974 12.3756C33.0106 12.2756 33.0269 12.1692 33.0218 12.0629C33.0168 11.9565 32.9906 11.8522 32.9447 11.7561C32.8988 11.6599 32.8342 11.5739 32.7547 11.5031C29.3362 8.3252 24.9237 6.39999 20.1156 6.39999ZM36.3922 16.75C36.226 16.7527 36.0648 16.8072 35.9309 16.9057C35.7971 17.0043 35.6973 17.1421 35.6453 17.3C32.4366 23.2575 26.6699 27.2 20.0938 27.2C13.5322 27.2 7.77727 23.2734 4.56408 17.3375C4.50305 17.1574 4.3799 17.005 4.21669 16.9075C4.05347 16.8099 3.86086 16.7737 3.67338 16.8053C3.48589 16.8369 3.31579 16.9342 3.19354 17.0799C3.0713 17.2255 3.0049 17.4099 3.00626 17.6V17.6391C3.00588 17.7709 3.03809 17.9008 3.10001 18.0172C4.18658 20.046 5.56099 21.8644 7.15783 23.4062L2.61564 28.2531C2.4706 28.4081 2.39307 28.6144 2.4001 28.8265C2.40713 29.0387 2.49815 29.2393 2.65314 29.3844C2.80812 29.5294 3.01438 29.6069 3.22653 29.5999C3.43868 29.5929 3.63935 29.5019 3.78439 29.3469L8.35314 24.4703C9.67266 25.5587 11.1154 26.4741 12.6578 27.175L9.68126 33.2484C9.63507 33.3428 9.60792 33.4454 9.60137 33.5503C9.59482 33.6552 9.60899 33.7603 9.64309 33.8597C9.67718 33.9591 9.73051 34.0508 9.80006 34.1296C9.8696 34.2084 9.95398 34.2727 10.0484 34.3189C10.1428 34.3651 10.2453 34.3922 10.3502 34.3987C10.4551 34.4053 10.5603 34.3911 10.6597 34.3569C10.7591 34.3228 10.8508 34.2695 10.9295 34.1999C11.0083 34.1304 11.0726 34.046 11.1188 33.9516L14.1469 27.7703C15.753 28.3367 17.4464 28.6797 19.2016 28.7672C19.2008 28.7781 19.2003 28.789 19.2 28.8V35.2C19.1985 35.306 19.2181 35.4113 19.2576 35.5096C19.2972 35.608 19.3558 35.6975 19.4303 35.773C19.5047 35.8485 19.5934 35.9085 19.6912 35.9494C19.789 35.9903 19.894 36.0114 20 36.0114C20.106 36.0114 20.211 35.9903 20.3088 35.9494C20.4066 35.9085 20.4953 35.8485 20.5697 35.773C20.6442 35.6975 20.7029 35.608 20.7424 35.5096C20.7819 35.4113 20.8015 35.306 20.8 35.2V28.8C20.7996 28.7911 20.7991 28.7823 20.7985 28.7734C22.6112 28.7021 24.3597 28.3532 26.0156 27.7734L28.875 33.9359C28.9156 34.0366 28.9762 34.1279 29.0531 34.2043C29.1301 34.2808 29.2218 34.3408 29.3226 34.3808C29.4235 34.4207 29.5315 34.4397 29.6399 34.4366C29.7483 34.4335 29.855 34.4084 29.9535 34.3628C30.0519 34.3172 30.14 34.252 30.2125 34.1713C30.285 34.0905 30.3402 33.9959 30.375 33.8931C30.4098 33.7904 30.4232 33.6816 30.4147 33.5735C30.4061 33.4653 30.3756 33.36 30.325 33.2641L27.5016 27.175C28.9475 26.5221 30.3075 25.6865 31.5594 24.6906L36.2344 29.3656C36.318 29.4526 36.4201 29.5196 36.5332 29.5615C36.6463 29.6035 36.7674 29.6193 36.8875 29.6078C36.9137 29.6054 36.9398 29.6018 36.9656 29.5969C37.1094 29.5687 37.2426 29.5016 37.3509 29.4029C37.4591 29.3042 37.5382 29.1777 37.5794 29.0371C37.6207 28.8965 37.6226 28.7474 37.5849 28.6058C37.5472 28.4643 37.4713 28.3358 37.3656 28.2344L32.7719 23.6406C34.4877 22.0391 35.9626 20.1287 37.1094 17.9766C37.1716 17.8608 37.2043 17.7314 37.2047 17.6V17.5609C37.2062 17.4539 37.1861 17.3477 37.1458 17.2485C37.1055 17.1494 37.0457 17.0593 36.9699 16.9837C36.8941 16.9081 36.804 16.8484 36.7047 16.8083C36.6055 16.7681 36.4992 16.7483 36.3922 16.75Z" fill="black"/>
</svg>
