<?xml version="1.0" encoding="UTF-8"?>
<svg width="40" height="40" viewBox="0 0 40 40" fill="none" xmlns="http://www.w3.org/2000/svg">
<path d="M20 8C13.372 8 7.57797 12.0547 4.35938 18C7.57797 23.9453 13.372 28 20 28C26.628 28 32.422 23.9453 35.6406 18C32.422 12.0547 26.628 8 20 8ZM20 24C18.4178 24 16.8711 23.5308 15.5555 22.6518C14.2399 21.7727 13.2145 20.5233 12.609 19.0615C12.0035 17.5997 11.845 15.9911 12.1537 14.4393C12.4624 12.8874 13.2243 11.462 14.3431 10.3431C15.462 9.22433 16.8874 8.4624 18.4393 8.15372C19.9911 7.84504 21.5997 8.00346 23.0615 8.60896C24.5233 9.21447 25.7727 10.2399 26.6518 11.5555C27.5308 12.8711 28 14.4177 28 16C28 18.1217 27.1571 20.1566 25.6569 21.6569C24.1566 23.1571 22.1217 24 20 24ZM20 12C19.606 12 19.2181 12.0776 18.8599 12.2284C18.5016 12.3791 18.1813 12.5993 17.9142 12.8747C17.647 13.1502 17.4387 13.4754 17.3008 13.8367C17.163 14.198 17.0988 14.5877 17.112 14.978C17.1253 15.3683 17.2156 15.7508 17.3777 16.1005C17.5397 16.4502 17.77 16.7594 18.0532 17.0089C18.3364 17.2584 18.6661 17.4424 19.0228 17.5494C19.3796 17.6564 19.7551 17.6837 20.1227 17.6297C19.9465 17.9866 19.8891 18.3908 19.9583 18.7857C20.0275 19.1806 20.2201 19.5475 20.5125 19.8399C20.8049 20.1323 21.1718 20.3249 21.5667 20.3941C21.9616 20.4633 22.3658 20.4059 22.7227 20.2297C22.6837 20.5201 22.6837 20.8149 22.7227 21.1053C22.0971 21.3619 21.4178 21.4996 20.7305 21.5094C19.7374 21.5239 18.7626 21.2608 17.9175 20.7504C17.0725 20.24 16.3955 19.5042 15.9688 18.6297C15.5421 17.7552 15.3846 16.7777 15.5147 15.8176C15.6449 14.8574 16.0573 13.9572 16.7002 13.2306C17.3431 12.504 18.1873 11.9744 19.1246 11.7041C20.062 11.4338 21.0576 11.4346 21.9946 11.7064C22.9316 11.9782 23.7749 12.5091 24.4167 13.2367C24.3087 13.2681 24.2055 13.3146 24.1102 13.375C23.9961 13.4471 23.8971 13.5413 23.8188 13.6523C23.7405 13.7633 23.6845 13.8891 23.6539 14.0219C23.6232 14.1546 23.6185 14.2922 23.64 14.4266C23.6615 14.561 23.7089 14.6899 23.7797 14.8063C23.8505 14.9226 23.9435 15.0241 24.0536 15.1043C24.1637 15.1845 24.2889 15.2424 24.4213 15.275C24.5537 15.3076 24.6913 15.3144 24.8259 15.2947C24.9605 15.2751 25.0898 15.2295 25.207 15.1602L25.2188 15.1523C25.4055 15.7736 25.5016 16.4184 25.5039 17.0664C25.5068 18.4333 25.0485 19.7581 24.2031 20.8281C24.1328 20.5859 24.0234 20.3555 23.8789 20.1445C23.6992 19.8867 23.4727 19.6641 23.2109 19.4883C23.3477 19.0039 23.3555 18.4922 23.2344 18.0039C23.1133 17.5156 22.8672 17.0664 22.5195 16.7031C22.8086 16.168 22.9336 15.5625 22.8789 14.957C22.8242 14.3516 22.5898 13.7773 22.207 13.3047C21.8242 12.832 21.3086 12.4805 20.7227 12.2891C20.1367 12.0977 19.5078 12.0742 18.9102 12.2227C18.9219 12.1484 18.9297 12.0742 18.9336 12H20ZM20 14C20.2652 14 20.5196 14.1054 20.7071 14.2929C20.8946 14.4804 21 14.7348 21 15C21 15.2652 20.8946 15.5196 20.7071 15.7071C20.5196 15.8946 20.2652 16 20 16C19.7348 16 19.4804 15.8946 19.2929 15.7071C19.1054 15.5196 19 15.2652 19 15C19 14.7348 19.1054 14.4804 19.2929 14.2929C19.4804 14.1054 19.7348 14 20 14Z" fill="black"/>
</svg> 