<svg width="24" height="24" viewBox="0 0 24 24" fill="none" xmlns="http://www.w3.org/2000/svg">
<path d="M1.4043 1.43994L2.81992 21.2174C2.87055 21.9693 3.50242 22.5599 4.25617 22.5599H11.1037C11.8555 22.5599 12.4893 21.9693 12.5399 21.2174L12.5868 20.5574C13.6443 21.5006 15.0337 22.0799 16.5599 22.0799C19.8674 22.0799 22.5599 19.3874 22.5599 16.0799C22.5599 13.5974 21.043 11.4618 18.8868 10.5506C20.5218 9.79307 21.7368 8.22744 22.0724 6.34494L22.1643 5.82182L21.6374 5.78244C21.5193 5.77119 21.3843 5.75994 21.2343 5.75994C18.9093 5.75994 16.9349 7.28244 16.1343 9.41432L15.8324 7.60119C15.7987 7.37057 15.6018 7.19807 15.3674 7.19244C15.2249 7.19057 15.0862 7.25244 14.9943 7.36119C14.9005 7.47182 14.8612 7.61619 14.8874 7.75869L15.2962 10.2168C14.5612 10.3762 13.8749 10.6668 13.2674 11.0681L13.9555 1.43994H1.4043ZM2.43555 2.39994H12.9243L12.6149 6.71994H2.74492L2.43555 2.39994ZM20.9118 6.77994C20.3418 8.57994 18.8493 9.87557 17.008 10.0199C17.578 8.21994 19.0705 6.92432 20.9118 6.77994ZM2.81242 7.67994H12.5474L12.2437 11.9118L11.6943 19.5862L11.5818 21.1518C11.5649 21.4087 11.3605 21.5999 11.1037 21.5999H4.25617C3.9993 21.5999 3.79492 21.4087 3.77805 21.1518L2.81242 7.67994ZM16.5599 11.0399C19.348 11.0399 21.5999 13.2918 21.5999 16.0799C21.5999 18.8681 19.348 21.1199 16.5599 21.1199C14.9868 21.1199 13.6049 20.3887 12.6805 19.2618L13.1718 12.3881C14.0699 11.5649 15.2437 11.0399 16.5599 11.0399ZM17.7599 16.3199C17.4955 16.3199 17.2799 16.5356 17.2799 16.7999C17.2799 17.0643 17.4955 17.2799 17.7599 17.2799C18.0243 17.2799 18.2399 17.0643 18.2399 16.7999C18.2399 16.5356 18.0243 16.3199 17.7599 16.3199ZM19.6799 16.3199C19.4155 16.3199 19.1999 16.5356 19.1999 16.7999C19.1999 17.0643 19.4155 17.2799 19.6799 17.2799C19.9443 17.2799 20.1599 17.0643 20.1599 16.7999C20.1599 16.5356 19.9443 16.3199 19.6799 16.3199ZM18.7199 17.7599C18.4555 17.7599 18.2399 17.9756 18.2399 18.2399C18.2399 18.5043 18.4555 18.7199 18.7199 18.7199C18.9843 18.7199 19.1999 18.5043 19.1999 18.2399C19.1999 17.9756 18.9843 17.7599 18.7199 17.7599Z" fill="#F9F9F9"/>
</svg>
