<svg width="40" height="40" viewBox="0 0 40 40" fill="none" xmlns="http://www.w3.org/2000/svg">
<path d="M16 1.59859C15.876 1.59859 15.7526 1.62766 15.6406 1.68766L14.4 2.30484L13.1593 1.68766C12.9113 1.55966 12.6165 1.57647 12.3765 1.72047C12.1445 1.86447 12 2.12016 12 2.40016V10.4314C14.528 10.6314 16.7845 11.8162 18.3765 13.6002H21.6C22.0399 13.6002 22.4 13.9602 22.4 14.4002C22.4 14.8402 22.0399 15.2002 21.6 15.2002H19.5437C20.1037 16.1682 20.5033 17.2482 20.6953 18.4002H24.7999C25.24 18.4002 25.6 18.7602 25.6 19.2002C25.6 19.6402 25.24 20.0002 24.7999 20.0002H20.8312C20.8312 21.1202 20.6395 22.2002 20.2875 23.2002H21.6C22.0399 23.2002 22.4 23.5602 22.4 24.0002C22.4 24.4402 22.0399 24.8002 21.6 24.8002H19.5437C17.9997 27.4562 15.224 29.3129 12 29.5689V36.8002C12 37.1042 12.1686 37.3847 12.4406 37.5127L14.0406 38.3127C14.2646 38.4327 14.5353 38.4327 14.7593 38.3127L16 37.6955L17.2406 38.3127C17.4646 38.4327 17.7353 38.4327 17.9593 38.3127L19.2 37.6955L20.4406 38.3127C20.6646 38.4327 20.9353 38.4327 21.1593 38.3127L22.4 37.6955L23.6406 38.3127C23.8646 38.4327 24.1353 38.4327 24.3593 38.3127L25.6 37.6955L26.8406 38.3127C27.0646 38.4327 27.3353 38.4327 27.5593 38.3127L28.7999 37.6955L30.0406 38.3127C30.2646 38.4327 30.5353 38.4327 30.7593 38.3127L32 37.6955L33.2406 38.3127C33.3526 38.3687 33.4799 38.4002 33.5999 38.4002C33.7199 38.4002 33.8473 38.3687 33.9593 38.3127L35.5593 37.5127C35.8313 37.3847 36 37.1042 36 36.8002V2.40016C36 2.12016 35.8554 1.86447 35.6234 1.72047C35.3834 1.57647 35.0886 1.55966 34.8406 1.68766L33.5999 2.30484L32.3593 1.68766C32.1353 1.56766 31.8646 1.56766 31.6406 1.68766L30.4 2.30484L29.1593 1.68766C28.9353 1.56766 28.6646 1.56766 28.4406 1.68766L27.1999 2.30484L25.9593 1.68766C25.7353 1.56766 25.4646 1.56766 25.2406 1.68766L24 2.30484L22.7593 1.68766C22.5353 1.56766 22.2646 1.56766 22.0406 1.68766L20.7999 2.30484L19.5593 1.68766C19.3353 1.56766 19.0646 1.56766 18.8406 1.68766L17.6 2.30484L16.3593 1.68766C16.2473 1.62766 16.124 1.59859 16 1.59859ZM16.8 8.80016H24.7999C25.24 8.80016 25.6 9.16016 25.6 9.60016C25.6 10.0402 25.24 10.4002 24.7999 10.4002H16.8C16.36 10.4002 16 10.0402 16 9.60016C16 9.16016 16.36 8.80016 16.8 8.80016ZM29.5999 8.80016H31.1999C31.6399 8.80016 32 9.16016 32 9.60016C32 10.0402 31.6399 10.4002 31.1999 10.4002H29.5999C29.16 10.4002 28.7999 10.0402 28.7999 9.60016C28.7999 9.16016 29.16 8.80016 29.5999 8.80016ZM11.2312 12.0002C6.8152 12.0002 3.2312 15.5842 3.2312 20.0002C3.2312 24.4162 6.8152 28.0002 11.2312 28.0002C15.6472 28.0002 19.2312 24.4162 19.2312 20.0002C19.2312 15.5842 15.6472 12.0002 11.2312 12.0002ZM29.5999 13.6002H31.1999C31.6399 13.6002 32 13.9602 32 14.4002C32 14.8402 31.6399 15.2002 31.1999 15.2002H29.5999C29.16 15.2002 28.7999 14.8402 28.7999 14.4002C28.7999 13.9602 29.16 13.6002 29.5999 13.6002ZM10.4312 14.4002H12V15.8158C12.584 15.9278 13.1283 16.1996 13.5203 16.6236C13.9603 17.1116 14.2156 17.7762 14.2156 18.4002H12.7281C12.6881 17.7682 12.3922 17.072 11.2562 17.072C10.2162 17.072 9.72808 17.4797 9.72808 18.3517C9.72808 19.0877 10.3837 19.2721 11.5437 19.5361C12.8317 19.8321 14.4312 20.2007 14.4312 22.1127C14.4312 22.4807 14.28 24.24 12 24.608V25.6002H10.4312V24.5845C8.8792 24.2885 8.09639 23.3286 8.04839 21.6486L8.04058 21.6002H9.52808V21.6486C9.51208 22.1846 9.65589 22.5918 9.93589 22.8798C10.4239 23.3678 11.1992 23.3767 11.2312 23.3767C12.7272 23.3767 12.9515 22.5923 12.9515 22.1283C12.9515 21.3443 12.2959 21.1608 11.1359 20.9048C9.84789 20.6168 8.24839 20.2558 8.24839 18.2798C8.24839 18.0558 8.3112 16.1678 10.4312 15.8158V14.4002ZM29.5999 18.4002H31.1999C31.6399 18.4002 32 18.7602 32 19.2002C32 19.6402 31.6399 20.0002 31.1999 20.0002H29.5999C29.16 20.0002 28.7999 19.6402 28.7999 19.2002C28.7999 18.7602 29.16 18.4002 29.5999 18.4002ZM29.5999 23.2002H31.1999C31.6399 23.2002 32 23.5602 32 24.0002C32 24.4402 31.6399 24.8002 31.1999 24.8002H29.5999C29.16 24.8002 28.7999 24.4402 28.7999 24.0002C28.7999 23.5602 29.16 23.2002 29.5999 23.2002ZM16.8 31.2002C17.24 31.2002 17.6 31.5602 17.6 32.0002C17.6 32.4402 17.24 32.8002 16.8 32.8002C16.36 32.8002 16 32.4402 16 32.0002C16 31.5602 16.36 31.2002 16.8 31.2002ZM19.2 31.2002C19.6399 31.2002 20 31.5602 20 32.0002C20 32.4402 19.6399 32.8002 19.2 32.8002C18.76 32.8002 18.4 32.4402 18.4 32.0002C18.4 31.5602 18.76 31.2002 19.2 31.2002ZM21.6 31.2002C22.0399 31.2002 22.4 31.5602 22.4 32.0002C22.4 32.4402 22.0399 32.8002 21.6 32.8002C21.16 32.8002 20.7999 32.4402 20.7999 32.0002C20.7999 31.5602 21.16 31.2002 21.6 31.2002ZM24 31.2002C24.4399 31.2002 24.7999 31.5602 24.7999 32.0002C24.7999 32.4402 24.4399 32.8002 24 32.8002C23.5599 32.8002 23.1999 32.4402 23.1999 32.0002C23.1999 31.5602 23.5599 31.2002 24 31.2002ZM26.4 31.2002C26.84 31.2002 27.1999 31.5602 27.1999 32.0002C27.1999 32.4402 26.84 32.8002 26.4 32.8002C25.9599 32.8002 25.6 32.4402 25.6 32.0002C25.6 31.5602 25.9599 31.2002 26.4 31.2002ZM28.7999 31.2002C29.24 31.2002 29.5999 31.5602 29.5999 32.0002C29.5999 32.4402 29.24 32.8002 28.7999 32.8002C28.3599 32.8002 28 32.4402 28 32.0002C28 31.5602 28.3599 31.2002 28.7999 31.2002ZM31.1999 31.2002C31.6399 31.2002 32 31.5602 32 32.0002C32 32.4402 31.6399 32.8002 31.1999 32.8002C30.7599 32.8002 30.4 32.4402 30.4 32.0002C30.4 31.5602 30.7599 31.2002 31.1999 31.2002Z" />
</svg>
