<svg width="40" height="40" viewBox="0 0 40 40" fill="none" xmlns="http://www.w3.org/2000/svg">
<path d="M2.66665 2.66664C2.48997 2.66414 2.31455 2.69678 2.1506 2.76267C1.98664 2.82855 1.83741 2.92636 1.71158 3.05042C1.58576 3.17448 1.48584 3.32231 1.41765 3.48532C1.34945 3.64833 1.31433 3.82327 1.31433 3.99997C1.31433 4.17667 1.34945 4.35161 1.41765 4.51462C1.48584 4.67763 1.58576 4.82546 1.71158 4.94952C1.83741 5.07358 1.98664 5.17139 2.1506 5.23728C2.31455 5.30316 2.48997 5.3358 2.66665 5.3333H5.17186C5.47307 5.3333 5.7244 5.52192 5.80988 5.81247L11.4922 25.1302C11.9909 26.8258 13.5592 28 15.3281 28H29.9635C31.7614 28 33.3489 26.7849 33.8229 25.0521L37.2864 12.3515C37.3405 12.1537 37.3482 11.946 37.3089 11.7447C37.2696 11.5434 37.1844 11.3539 37.06 11.1909C36.9355 11.0279 36.7751 10.8958 36.5913 10.8048C36.4074 10.7139 36.2051 10.6666 36 10.6666H10.0182L8.36978 5.05987H8.36718C7.95132 3.64642 6.64399 2.66664 5.17186 2.66664H2.66665ZM18.6667 3.99997C17.8639 3.99997 17.1528 4.36111 16.6641 4.92185H16.6562L13.3333 7.99997H24H32L28.6849 4.92185H28.6693C28.1805 4.36111 27.4694 3.99997 26.6667 3.99997C25.8639 3.99997 25.1528 4.36111 24.6641 4.92185H24.6562L22.6693 6.76299L20.6849 4.92185H20.6693C20.1805 4.36111 19.4694 3.99997 18.6667 3.99997ZM16 30.6666C15.2927 30.6666 14.6145 30.9476 14.1144 31.4477C13.6143 31.9478 13.3333 32.6261 13.3333 33.3333C13.3333 34.0405 13.6143 34.7188 14.1144 35.2189C14.6145 35.719 15.2927 36 16 36C16.7072 36 17.3855 35.719 17.8856 35.2189C18.3857 34.7188 18.6667 34.0405 18.6667 33.3333C18.6667 32.6261 18.3857 31.9478 17.8856 31.4477C17.3855 30.9476 16.7072 30.6666 16 30.6666ZM29.3333 30.6666C28.6261 30.6666 27.9478 30.9476 27.4477 31.4477C26.9476 31.9478 26.6667 32.6261 26.6667 33.3333C26.6667 34.0405 26.9476 34.7188 27.4477 35.2189C27.9478 35.719 28.6261 36 29.3333 36C30.0406 36 30.7188 35.719 31.2189 35.2189C31.719 34.7188 32 34.0405 32 33.3333C32 32.6261 31.719 31.9478 31.2189 31.4477C30.7188 30.9476 30.0406 30.6666 29.3333 30.6666Z"/>
</svg>
