<svg width="24" height="24" viewBox="0 0 24 24" fill="none" xmlns="http://www.w3.org/2000/svg">
<path d="M6.24005 0.960021V1.92002H11.1L11.43 3.87002C7.72505 4.16252 4.80005 7.2619 4.80005 11.04C4.80005 11.3044 5.01567 11.52 5.28005 11.52H5.82005L7.20005 22.62C7.23005 22.8619 7.4363 23.0419 7.68005 23.04H16.32C16.5638 23.0419 16.77 22.8619 16.8 22.62L18.18 11.52H18.72C18.9844 11.52 19.2 11.3044 19.2 11.04C19.2 7.21127 16.1944 4.0744 12.42 3.85502L12 1.36502C11.9625 1.12877 11.7582 0.956271 11.52 0.960021H6.24005ZM12 4.80002C15.2869 4.80002 17.9475 7.3369 18.195 10.56H5.80505C6.05255 7.3369 8.71317 4.80002 12 4.80002ZM6.78005 11.52H17.22L16.98 13.44H14.88C14.865 13.44 14.85 13.44 14.835 13.44C14.5707 13.4531 14.3644 13.6781 14.3775 13.9425C14.3907 14.2069 14.6157 14.4131 14.88 14.4H16.86L15.9 22.08H8.10005L7.14005 14.4H12.96C13.1325 14.4019 13.2938 14.3119 13.3819 14.1619C13.4682 14.0119 13.4682 13.8281 13.3819 13.6781C13.2938 13.5281 13.1325 13.4381 12.96 13.44H7.02005L6.78005 11.52Z" fill="#F9F9F9"/>
</svg>
