<svg width="50" height="50" viewBox="0 0 50 50" fill="none" xmlns="http://www.w3.org/2000/svg">
<path d="M25 4C18.9375 4 14 8.9375 14 15V20.8438C11.5273 23.5195 10 27.0781 10 31C10 39.2695 16.7305 46 25 46C33.2695 46 40 39.2695 40 31C40 27.0781 38.4727 23.5195 36 20.8438V15C36 8.9375 31.0625 4 25 4ZM25 6C29.9844 6 34 10.0156 34 15V19.0312C31.4883 17.1367 28.3789 16 25 16C21.6211 16 18.5117 17.1367 16 19.0312V15C16 10.0156 20.0156 6 25 6ZM25 28C26.6562 28 28 29.3438 28 31C28 32.3047 27.1641 33.3984 26 33.8125V36C26 36.5508 25.5508 37 25 37C24.4492 37 24 36.5508 24 36V33.8125C22.8359 33.3984 22 32.3047 22 31C22 29.3438 23.3438 28 25 28Z"/>
</svg>
