<svg width="26" height="26" viewBox="0 0 26 26" fill="none" xmlns="http://www.w3.org/2000/svg">
<path d="M23.1497 0.120117C22.4519 0.120117 21.7562 0.393555 21.2247 0.925117L20.7697 1.38012L24.6197 5.23012C24.6175 5.2323 25.0747 4.77512 25.0747 4.77512C26.14 3.7098 26.1378 1.98824 25.0747 0.925117C24.5409 0.393555 23.8475 0.120117 23.1497 0.120117ZM19.9122 2.37762C19.7853 2.39512 19.6672 2.45855 19.5797 2.55262L1.41468 20.7351C1.34249 20.8007 1.2878 20.8861 1.25718 20.9801L0.137177 25.1801C0.0868641 25.3726 0.143739 25.5761 0.283739 25.7161C0.423739 25.8561 0.627177 25.9129 0.819677 25.8626L5.01968 24.7426C5.11374 24.712 5.19905 24.6573 5.26468 24.5851L23.4472 6.42012C23.6703 6.20355 23.6725 5.84699 23.4559 5.62387C23.2394 5.40074 22.8828 5.39855 22.6597 5.61512L4.58218 23.6926L2.30718 21.4176L20.3847 3.34012C20.5531 3.17824 20.6034 2.92668 20.5094 2.7123C20.4153 2.49793 20.1987 2.36449 19.9647 2.37762C19.9472 2.37762 19.9297 2.37762 19.9122 2.37762Z" fill="#818181"/>
</svg>
