<svg width="29" height="28" viewBox="0 0 29 28" fill="none" xmlns="http://www.w3.org/2000/svg">
<rect x="0.197266" width="28" height="28" rx="4.24243" fill="#292929"/>
<path d="M14.3511 19.463C14.5973 19.4649 14.7204 19.4658 14.8151 19.4194C14.9021 19.3767 14.9728 19.307 15.0167 19.2207C15.0646 19.1267 15.0655 19.0036 15.0674 18.7574L15.0908 15.6236C15.0927 15.3774 15.0936 15.2543 15.1414 15.1603C15.1854 15.074 15.2561 15.0043 15.3431 14.9617C15.4378 14.9153 15.5609 14.9162 15.8071 14.918L18.9409 14.9415C19.1871 14.9433 19.3102 14.9443 19.4049 14.8978C19.4918 14.8552 19.5626 14.7855 19.6065 14.6992C19.6544 14.6052 19.6553 14.4821 19.6571 14.2359L19.6599 13.8685C19.6617 13.6223 19.6626 13.4992 19.6162 13.4045C19.5736 13.3175 19.5039 13.2468 19.4176 13.2028C19.3236 13.155 19.2005 13.1541 18.9543 13.1522L15.8205 13.1288C15.5743 13.1269 15.4512 13.126 15.3572 13.0781C15.2709 13.0342 15.2012 12.9635 15.1585 12.8765C15.1121 12.7818 15.113 12.6587 15.1149 12.4125L15.1383 9.2787C15.1402 9.0325 15.1411 8.90941 15.0947 8.81469C15.052 8.72775 14.9823 8.657 14.896 8.61307C14.802 8.56521 14.6789 8.56429 14.4327 8.56245L14.0653 8.5597C13.8191 8.55786 13.696 8.55693 13.6013 8.60338C13.5144 8.64601 13.4436 8.71571 13.3997 8.802C13.3518 8.89601 13.3509 9.01911 13.3491 9.2653L13.3256 12.3991C13.3238 12.6453 13.3228 12.7684 13.275 12.8624C13.231 12.9487 13.1603 13.0184 13.0734 13.061C12.9786 13.1075 12.8555 13.1066 12.6094 13.1047L9.47554 13.0813C9.22934 13.0794 9.10625 13.0785 9.01153 13.1249C8.92459 13.1676 8.85384 13.2373 8.80991 13.3236C8.76206 13.4176 8.76114 13.5407 8.75929 13.7869L8.75654 14.1543C8.7547 14.4005 8.75378 14.5236 8.80022 14.6183C8.84285 14.7052 8.91255 14.776 8.99884 14.8199C9.09285 14.8678 9.21595 14.8687 9.46214 14.8705L12.596 14.894C12.8421 14.8958 12.9652 14.8968 13.0593 14.9446C13.1455 14.9885 13.2152 15.0593 13.2579 15.1462C13.3043 15.2409 13.3034 15.364 13.3016 15.6102L13.2781 18.744C13.2763 18.9902 13.2753 19.1133 13.3218 19.2081C13.3644 19.295 13.4341 19.3657 13.5204 19.4097C13.6144 19.4575 13.7375 19.4584 13.9837 19.4603L14.3511 19.463Z" fill="white"/>
</svg>
