<svg width="33" height="33" viewBox="0 0 33 33" fill="none" xmlns="http://www.w3.org/2000/svg">
<path d="M16.9054 32.8348C17.6369 32.8403 18.0027 32.843 18.2842 32.705C18.5425 32.5783 18.7527 32.3712 18.8833 32.1148C19.0255 31.8355 19.0282 31.4697 19.0337 30.7381L19.1034 21.4261C19.1089 20.6945 19.1116 20.3287 19.2538 20.0494C19.3844 19.793 19.5946 19.5859 19.8529 19.4592C20.1344 19.3212 20.5002 19.3239 21.2317 19.3294L30.5438 19.3991C31.2753 19.4046 31.6411 19.4073 31.9225 19.2693C32.1809 19.1426 32.3911 18.9355 32.5216 18.6791C32.6638 18.3998 32.6666 18.034 32.6721 17.3024L32.6802 16.2107C32.6857 15.4791 32.6885 15.1133 32.5504 14.8319C32.4238 14.5735 32.2167 14.3633 31.9603 14.2328C31.6809 14.0906 31.3151 14.0878 30.5836 14.0823L21.2715 14.0126C20.54 14.0072 20.1742 14.0044 19.8948 13.8622C19.6384 13.7317 19.4313 13.5214 19.3046 13.2631C19.1666 12.9817 19.1694 12.6159 19.1748 11.8843L19.2446 2.57228C19.25 1.84072 19.2528 1.47494 19.1148 1.19349C18.9881 0.93516 18.781 0.724928 18.5246 0.5944C18.2452 0.452192 17.8794 0.449454 17.1479 0.443976L16.0561 0.435802C15.3245 0.430326 14.9588 0.427587 14.6773 0.565596C14.419 0.69227 14.2087 0.899379 14.0782 1.15579C13.936 1.43514 13.9333 1.80092 13.9278 2.53248L13.8581 11.8445C13.8526 12.5761 13.8499 12.9419 13.7077 13.2212C13.5771 13.4776 13.3669 13.6847 13.1086 13.8114C12.8271 13.9494 12.4613 13.9467 11.7298 13.9412L2.41773 13.8715C1.68617 13.866 1.32039 13.8633 1.03894 14.0013C0.780609 14.1279 0.570376 14.3351 0.439848 14.5915C0.29764 14.8708 0.294901 15.2366 0.289424 15.9682L0.28125 17.0599C0.275773 17.7915 0.273035 18.1573 0.411045 18.4387C0.537718 18.6971 0.744827 18.9073 1.00123 19.0378C1.28059 19.18 1.64637 19.1828 2.37793 19.1882L11.69 19.258C12.4215 19.2634 12.7873 19.2662 13.0667 19.4084C13.3231 19.5389 13.5302 19.7491 13.6568 20.0075C13.7949 20.2889 13.7921 20.6547 13.7866 21.3863L13.7169 30.6983C13.7114 31.4299 13.7087 31.7956 13.8467 32.0771C13.9734 32.3354 14.1805 32.5457 14.4369 32.6762C14.7163 32.8184 15.082 32.8211 15.8136 32.8266L16.9054 32.8348Z" fill="white"/>
</svg>
