<svg width="27" height="27" viewBox="0 0 27 27" fill="none" xmlns="http://www.w3.org/2000/svg">
<rect x="0.0693359" y="0.582031" width="26.2458" height="26.2458" rx="3.97663" fill="#C83A2E"/>
<path d="M13.3372 18.826C13.568 18.8278 13.6834 18.8286 13.7722 18.7851C13.8537 18.7451 13.92 18.6798 13.9611 18.5989C14.006 18.5108 14.0069 18.3954 14.0086 18.1646L14.0306 15.2272C14.0323 14.9964 14.0332 14.881 14.078 14.7929C14.1192 14.712 14.1855 14.6467 14.267 14.6067C14.3558 14.5632 14.4712 14.564 14.702 14.5658L17.6394 14.5878C17.8702 14.5895 17.9856 14.5903 18.0744 14.5468C18.1559 14.5069 18.2222 14.4415 18.2634 14.3606C18.3082 14.2725 18.3091 14.1571 18.3108 13.9264L18.3134 13.582C18.3151 13.3512 18.316 13.2358 18.2724 13.147C18.2325 13.0655 18.1672 12.9992 18.0863 12.958C17.9981 12.9132 17.8828 12.9123 17.652 12.9106L14.7145 12.8886C14.4837 12.8869 14.3684 12.886 14.2802 12.8411C14.1994 12.8 14.134 12.7337 14.0941 12.6522C14.0505 12.5634 14.0514 12.448 14.0531 12.2172L14.0751 9.27975C14.0768 9.04898 14.0777 8.93359 14.0342 8.84481C13.9942 8.76332 13.9289 8.697 13.848 8.65583C13.7599 8.61097 13.6445 8.6101 13.4137 8.60838L13.0693 8.6058C12.8385 8.60407 12.7232 8.60321 12.6344 8.64674C12.5529 8.6867 12.4866 8.75203 12.4454 8.83292C12.4005 8.92104 12.3997 9.03642 12.3979 9.26719L12.376 12.2047C12.3742 12.4354 12.3734 12.5508 12.3285 12.6389C12.2873 12.7198 12.221 12.7852 12.1395 12.8251C12.0507 12.8687 11.9353 12.8678 11.7046 12.8661L8.76711 12.8441C8.53634 12.8423 8.42095 12.8415 8.33217 12.885C8.25068 12.925 8.18436 12.9903 8.14318 13.0712C8.09833 13.1593 8.09746 13.2747 8.09573 13.5055L8.09316 13.8499C8.09143 14.0806 8.09056 14.196 8.1341 14.2848C8.17406 14.3663 8.23939 14.4326 8.32027 14.4738C8.4084 14.5186 8.52378 14.5195 8.75455 14.5212L11.692 14.5432C11.9228 14.545 12.0382 14.5458 12.1263 14.5907C12.2072 14.6319 12.2725 14.6982 12.3125 14.7797C12.356 14.8684 12.3551 14.9838 12.3534 15.2146L12.3314 18.1521C12.3297 18.3828 12.3288 18.4982 12.3724 18.587C12.4123 18.6685 12.4777 18.7348 12.5585 18.776C12.6467 18.8209 12.7621 18.8217 12.9928 18.8235L13.3372 18.826Z" fill="white"/>
</svg>
