<svg width="28" height="28" viewBox="0 0 28 28" fill="none" xmlns="http://www.w3.org/2000/svg">
<path d="M11.76 1.68018C6.5078 1.68018 2.23999 5.94799 2.23999 11.2002C2.23999 16.4524 6.5078 20.7202 11.76 20.7202C13.8381 20.7202 15.7587 20.0508 17.325 18.9177L24.6925 26.2677L26.2675 24.6927L18.9875 17.3952C20.4181 15.7283 21.28 13.5649 21.28 11.2002C21.28 5.94799 17.0122 1.68018 11.76 1.68018ZM11.76 2.80018C16.4062 2.80018 20.16 6.55393 20.16 11.2002C20.16 15.8464 16.4062 19.6002 11.76 19.6002C7.11374 19.6002 3.35999 15.8464 3.35999 11.2002C3.35999 6.55393 7.11374 2.80018 11.76 2.80018Z" />
</svg>
