<svg width="50" height="50" viewBox="0 0 50 50" fill="none" xmlns="http://www.w3.org/2000/svg">
<path d="M10.3365 11.5385C9.92338 11.5385 9.52524 11.6511 9.19471 11.899L0.78125 19.5914C0.78125 19.5914 0 20.1022 0 21.1539V25C0 26.0592 0.863883 26.9231 1.92308 26.9231V48.0769C1.92308 49.1361 2.78696 50 3.84615 50H5.76923C6.82842 50 7.69231 49.1361 7.69231 48.0769V26.9231H42.3077V48.0769C42.3077 49.1361 43.1716 50 44.2308 50H46.1538C47.213 50 48.0769 49.1361 48.0769 48.0769V26.9231C49.1361 26.9231 50 26.0592 50 25V21.1539C50 20.1322 48.9784 19.4712 48.9784 19.4712L40.8053 11.899C40.4748 11.6511 40.0766 11.5385 39.6635 11.5385H10.3365ZM9.61538 28.8462V38.4615C9.61538 39.5207 10.4793 40.3846 11.5385 40.3846C12.5977 40.3846 13.4615 39.5207 13.4615 38.4615V28.8462H9.61538ZM36.5385 28.8462V38.4615C36.5385 39.5207 37.4023 40.3846 38.4615 40.3846C39.5207 40.3846 40.3846 39.5207 40.3846 38.4615V28.8462H36.5385Z"/>
</svg>
