<svg width="50" height="50" viewBox="0 0 50 50" fill="none" xmlns="http://www.w3.org/2000/svg">
<path d="M25 5C19.4767 5 15 9.47667 15 15V16.6667C15 22.19 19.4767 26.6667 25 26.6667C30.5233 26.6667 35 22.19 35 16.6667V15C35 9.47667 30.5233 5 25 5ZM18.4961 32.5879C13.6044 33.8662 8.99009 36.273 7.28842 38.4863C5.76509 40.4663 7.21522 43.3333 9.71355 43.3333H40.2832C42.7815 43.3333 44.2317 40.4647 42.7083 38.4831C41.0067 36.2697 36.3939 33.8662 31.5039 32.5879C29.7539 34.0896 27.485 35 25 35C22.5133 35 20.2461 34.0879 18.4961 32.5879Z"/>
</svg>
