<svg width="40" height="40" viewBox="0 0 40 40" fill="none" xmlns="http://www.w3.org/2000/svg">
<path d="M8 1.6001C4.47188 1.6001 1.6 4.47197 1.6 8.0001C1.6 11.5282 4.47188 14.4001 8 14.4001C11.5281 14.4001 14.4 11.5282 14.4 8.0001C14.4 4.47197 11.5281 1.6001 8 1.6001ZM28.8 5.6001C28.3563 5.6001 28 5.95947 28 6.4001V12.0001H27.2C26.7563 12.0001 26.4 12.3595 26.4 12.8001C26.4 13.2407 26.7563 13.6001 27.2 13.6001H38.4C38.8438 13.6001 39.2 13.2407 39.2 12.8001C39.2 12.3595 38.8438 12.0001 38.4 12.0001H37.6V9.6001C37.6 9.15947 37.2406 8.8001 36.8 8.8001H35.2V6.4001C35.2 5.95947 34.8438 5.6001 34.4 5.6001H28.8ZM35.2 10.4001H36V12.0001H35.2V10.4001ZM24.65 14.4001C24.2094 14.4407 23.8844 14.8345 23.925 15.2751C23.9656 15.7157 24.3594 16.0407 24.8 16.0001H36.8C37.0875 16.0032 37.3563 15.8532 37.5031 15.6032C37.6469 15.3532 37.6469 15.047 37.5031 14.797C37.3563 14.547 37.0875 14.397 36.8 14.4001H24.8C24.775 14.4001 24.75 14.4001 24.725 14.4001C24.7 14.4001 24.675 14.4001 24.65 14.4001ZM4 16.0001C3.4375 16.0001 1.69688 16.1688 0.675 16.3251C0.284375 16.3845 0 16.7313 0 17.1251V37.6001C0 38.0438 0.359375 38.4001 0.8 38.4001H16.8C17.2406 38.4001 17.6 38.0438 17.6 37.6001V28.1251L19.75 30.5501C20.3719 31.2595 21.0063 32.0001 22 32.0001C23.0094 32.0001 23.5281 31.5407 24.325 30.4751C24.6031 30.0876 28.0063 26.1189 30.175 23.6001C30.4125 23.3657 31.6344 23.0282 32.45 22.8001C34.1813 22.3126 35.9625 21.8095 36.575 20.8001H25.225L22.125 23.8001L17.625 17.1501C17.5969 17.1095 17.5625 17.0595 17.525 17.0251C16.5406 16.0407 12.75 16.0001 12 16.0001C11.6281 16.0001 11.3094 16.2657 11.225 16.6251L8 31.7501L4.775 16.6251C4.69062 16.2657 4.37188 16.0001 4 16.0001ZM23.2 16.8001C22.7563 16.8001 22.4 17.1595 22.4 17.6001C22.4 19.3939 24.6063 20.0001 26.4 20.0001H36C37.7938 20.0001 40 19.3939 40 17.6001C40 17.1595 39.6437 16.8001 39.2 16.8001H23.2Z"/>
</svg>
