<svg width="20" height="20" viewBox="0 0 20 20" fill="none" xmlns="http://www.w3.org/2000/svg">
<path fill-rule="evenodd" clip-rule="evenodd" d="M8.77348 1.90259C9.14789 1.69179 9.57031 1.58105 9.99998 1.58105C10.4296 1.58105 10.8521 1.69179 11.2265 1.90259C11.6009 2.11338 11.9146 2.41712 12.1375 2.78448L12.1399 2.78844L19.1982 14.5718L19.205 14.5833C19.4233 14.9613 19.5388 15.3899 19.54 15.8264C19.5412 16.263 19.4281 16.6922 19.2119 17.0714C18.9958 17.4507 18.6841 17.7667 18.3078 17.9881C17.9316 18.2095 17.504 18.3285 17.0675 18.3333L17.0583 18.3334L2.93248 18.3333C2.49598 18.3285 2.06834 18.2095 1.69212 17.9881C1.31589 17.7667 1.00419 17.4507 0.788018 17.0714C0.571848 16.6922 0.458748 16.263 0.459971 15.8264C0.461193 15.3899 0.576695 14.9613 0.794985 14.5833L0.801754 14.5718L7.86247 2.78448C8.0853 2.41711 8.39908 2.11338 8.77348 1.90259ZM9.99998 3.24772C9.85675 3.24772 9.71595 3.28463 9.59115 3.3549C9.46691 3.42485 9.3627 3.52549 9.28849 3.64721L2.23555 15.4215C2.16457 15.5464 2.12703 15.6874 2.12663 15.8311C2.12622 15.9766 2.16392 16.1197 2.23598 16.2461C2.30804 16.3725 2.41194 16.4779 2.53735 16.5517C2.66166 16.6248 2.80281 16.6644 2.94697 16.6667H17.053C17.1971 16.6644 17.3383 16.6248 17.4626 16.5517C17.588 16.4779 17.6919 16.3725 17.764 16.2461C17.836 16.1197 17.8737 15.9766 17.8733 15.8311C17.8729 15.6875 17.8354 15.5464 17.7644 15.4216L10.7125 3.64886C10.7121 3.64831 10.7118 3.64776 10.7115 3.64721C10.6373 3.52549 10.533 3.42485 10.4088 3.3549C10.284 3.28463 10.1432 3.24772 9.99998 3.24772Z" fill="#3D3D3D"/>
<path fill-rule="evenodd" clip-rule="evenodd" d="M9.99984 6.6665C10.4601 6.6665 10.8332 7.0396 10.8332 7.49984V10.8332C10.8332 11.2934 10.4601 11.6665 9.99984 11.6665C9.5396 11.6665 9.1665 11.2934 9.1665 10.8332V7.49984C9.1665 7.0396 9.5396 6.6665 9.99984 6.6665Z" fill="#3D3D3D"/>
<path fill-rule="evenodd" clip-rule="evenodd" d="M9.1665 14.1668C9.1665 13.7066 9.5396 13.3335 9.99984 13.3335H10.0082C10.4684 13.3335 10.8415 13.7066 10.8415 14.1668C10.8415 14.6271 10.4684 15.0002 10.0082 15.0002H9.99984C9.5396 15.0002 9.1665 14.6271 9.1665 14.1668Z" fill="#3D3D3D"/>
</svg>
